<svg width="55" height="54" viewBox="0 0 55 54" fill="none" xmlns="http://www.w3.org/2000/svg">
<path d="M54.8335 3.65962L54.2888 1.80247C54.0953 1.14295 53.6316 0.585429 53.0163 0.273065C52.401 -0.0393 51.6749 -0.0860363 51.0242 0.145042C50.1897 0.441434 49.5669 1.16307 49.3986 2.02846L46.7262 15.7837L42.1948 10.6865L42.9795 8.60598C43.4716 7.30127 43.3777 5.84664 42.722 4.61505C42.0994 3.44522 40.9349 2.69247 39.6068 2.60136L37.564 2.46127C36.3973 2.38093 35.2177 2.69259 34.2441 3.33814L31.5811 5.10371L27.1768 3.64364C26.8655 3.54059 26.523 3.61536 26.284 3.8384C26.0448 4.06155 25.9481 4.39699 26.0319 4.71219L28.0026 12.1321C28.3696 13.5139 28.8933 14.8567 29.5589 16.1231L31.1825 19.2118C23.5533 22.6336 18.3149 29.7938 17.4225 38.1216L17.0271 41.8116C16.9178 42.832 16.4039 43.7356 15.5801 44.3559C14.7548 44.9773 13.7088 45.2567 12.6358 45.1422C7.99526 44.6478 5.63144 42.348 5.11222 41.5035C4.2055 40.0288 4.55744 37.483 6.10318 34.3351C7.58717 31.3133 7.58848 30.284 7.13423 29.6679C6.86867 29.3077 6.42775 29.1348 5.95446 29.2052C5.00193 29.3475 3.86345 30.5063 3.07606 31.4533C2.00694 32.7395 1.14483 34.1885 0.710925 35.4289C-0.142969 37.8703 -0.229346 40.2612 0.460956 42.343C1.2951 44.8581 3.20634 46.896 6.14185 48.3999C12.4166 51.6144 18.3493 52.0478 23.3254 52.0478H26.4231C27.1541 53.2312 28.4651 54 29.9298 54H42.9554C43.2465 54 43.5193 53.8588 43.6863 53.6217C43.8534 53.3846 43.8936 53.0815 43.7941 52.8093C43.25 51.3216 41.9948 50.2326 40.4364 49.8962C36.471 49.0406 34.6102 48.266 33.9333 47.817C35.5012 45.9003 36.4205 43.7798 36.6253 41.6485L38.609 39.9752L43.3745 51.3156C44.0599 52.9462 45.6511 54 47.4282 54H50.6288C51.1218 54 51.5212 53.6027 51.5212 53.1126C51.5212 50.9483 49.9784 49.1401 47.8407 48.783L45.4704 33.629C45.8848 32.0076 46.8421 30.2196 48.318 28.3111C49.1483 27.2373 49.6917 26.0203 49.9552 24.7588C51.0739 24.4746 53.0805 23.4705 53.8223 19.929C53.836 19.8632 53.8423 19.7962 53.8407 19.7291C53.7003 13.1644 54.5586 7.63327 54.934 5.56007C55.0485 4.93108 55.0135 4.27393 54.8335 3.65962ZM46.9034 27.2293C46.4052 27.8738 45.9609 28.5089 45.569 29.1339L45.6319 26.6922C45.6446 26.2023 45.2555 25.7949 44.7628 25.7824C44.2744 25.7719 43.8605 26.1568 43.848 26.6467C43.848 26.6467 43.6718 33.6761 43.6798 33.7272L46.1782 49.6995C46.2381 50.083 46.5418 50.3832 46.9276 50.4407L47.4965 50.5255C48.4851 50.6731 49.2673 51.3392 49.584 52.2251H47.4284C46.373 52.2251 45.4281 51.5994 45.0212 50.6311L35.9268 28.9892C35.7368 28.537 35.2139 28.3235 34.7594 28.5126C34.3047 28.7015 34.09 29.2213 34.2802 29.6735L37.887 38.2568L36.5678 39.3696C36.1898 36.8293 34.7891 34.6437 32.7178 33.3686C28.5379 30.7953 22.2156 34.8033 21.9484 34.9752C21.5346 35.2414 21.4162 35.7909 21.6839 36.2023C21.9517 36.614 22.5043 36.7313 22.9178 36.4653C24.4735 35.4642 29.0978 33.2275 31.7784 34.8776C33.4117 35.8831 34.5163 37.6288 34.809 39.6672C35.1732 42.2031 34.2183 44.8764 32.1201 47.1947C31.9317 47.403 31.8533 47.6876 31.9085 47.9624C32.0944 48.8873 33.11 49.6044 35.3041 50.3606C36.87 50.9003 38.7537 51.349 40.058 51.6305C40.5183 51.7298 40.9355 51.9361 41.2814 52.2251H29.9298C28.8075 52.2251 27.844 51.4288 27.6386 50.3315L26.7009 45.319C26.6108 44.8372 26.1453 44.5196 25.6604 44.609C25.176 44.6986 24.8563 45.1619 24.9464 45.6438L25.8125 50.273H23.3253C18.3236 50.273 12.879 49.855 6.95898 46.8221C4.45405 45.5388 2.83799 43.8448 2.15566 41.7871C1.58921 40.079 1.67237 38.0819 2.39635 36.0119C2.99944 34.2874 4.37992 32.5356 5.34839 31.6123C5.18516 32.0661 4.92222 32.6954 4.49938 33.5563C3.20991 36.1821 2.00527 39.853 3.58956 42.4294C4.39384 43.7374 7.27986 46.3564 12.4457 46.907C13.9722 47.0694 15.4682 46.6661 16.6574 45.7708C17.878 44.8517 18.6396 43.5124 18.8017 41.9996L19.197 38.3096C20.0256 30.5772 24.9074 23.9338 32.0106 20.7874L32.7064 22.1111C32.9348 22.5455 33.4741 22.7136 33.9106 22.4864C34.3474 22.2594 34.5163 21.7233 34.288 21.2889L31.1404 15.3008C30.5363 14.1514 30.0611 12.9327 29.7279 11.6786L28.1788 5.84652L31.4304 6.92442C31.6915 7.01091 31.9783 6.97281 32.2076 6.82089L35.2337 4.81454C35.881 4.38539 36.6638 4.17857 37.4411 4.23158L39.484 4.37167C40.1917 4.42018 40.8126 4.82152 41.1445 5.44506C41.5614 6.22811 41.621 7.15301 41.3082 7.98243L40.9564 8.91621C40.6822 9.6414 40.0359 10.1779 39.2691 10.3165L35.1223 11.0663C34.6374 11.154 34.3158 11.616 34.404 12.0982C34.4823 12.5267 34.8579 12.827 35.2809 12.827C35.3338 12.827 35.3876 12.8223 35.4416 12.8125L39.5884 12.0627C39.98 11.9919 40.3531 11.8617 40.6994 11.6842L46.5898 18.3102C48.8243 20.8237 48.9561 24.5747 46.9034 27.2293ZM53.1781 5.24546C52.795 7.36043 51.9221 12.9836 52.0548 19.6633C51.6379 21.551 50.8027 22.4004 50.139 22.783C50.1001 20.8966 49.4557 19.0238 48.2149 17.477L51.1508 2.36532C51.1998 2.11318 51.3814 1.90292 51.6243 1.81655C51.8167 1.74828 52.023 1.76153 52.2048 1.85382C52.3866 1.94611 52.5183 2.10442 52.5754 2.29941L53.1201 4.15656C53.2234 4.50856 53.2433 4.88506 53.1781 5.24546Z" fill="#374999"/>
</svg>
