<svg width="37" height="22" viewBox="0 0 37 22" fill="none" xmlns="http://www.w3.org/2000/svg">
<path d="M36.7765 10.1635C33.293 4.10151 26.3966 0 18.5 0C10.6034 0 3.70511 4.10437 0.223507 10.1641C0.0765614 10.4234 0 10.7098 0 11.0003C0 11.2908 0.0765614 11.5772 0.223507 11.8365C3.70704 17.8985 10.6034 22 18.5 22C26.3966 22 33.2949 17.8956 36.7765 11.8359C36.9234 11.5766 37 11.2902 37 10.9997C37 10.7092 36.9234 10.4228 36.7765 10.1635ZM18.5 19.25C16.6705 19.25 14.8821 18.7661 13.361 17.8596C11.8398 16.9531 10.6542 15.6646 9.9541 14.1571C9.25399 12.6496 9.07081 10.9908 9.42772 9.39051C9.78463 7.79016 10.6656 6.32015 11.9593 5.16637C13.2529 4.01259 14.9011 3.22685 16.6954 2.90852C18.4897 2.59019 20.3496 2.75357 22.0398 3.37799C23.73 4.00242 25.1747 5.05984 26.1911 6.41655C27.2075 7.77325 27.75 9.3683 27.75 11C27.7506 12.0836 27.5118 13.1566 27.0471 14.1578C26.5825 15.1589 25.9011 16.0686 25.0421 16.8348C24.183 17.601 23.1631 18.2087 22.0405 18.6231C20.918 19.0375 19.7149 19.2505 18.5 19.25ZM18.5 5.5C17.9496 5.50686 17.4027 5.5799 16.8742 5.71714C17.3098 6.24518 17.5189 6.89499 17.4635 7.54872C17.408 8.20245 17.0917 8.81681 16.5719 9.28039C16.0522 9.74397 15.3633 10.0261 14.6304 10.0755C13.8974 10.125 13.1688 9.93851 12.5768 9.54995C12.2396 10.6577 12.3005 11.8319 12.7508 12.9072C13.2011 13.9826 14.0181 14.9049 15.0869 15.5444C16.1557 16.1838 17.4224 16.5083 18.7087 16.472C19.9951 16.4358 21.2363 16.0407 22.2577 15.3423C23.2791 14.6439 24.0293 13.6775 24.4026 12.579C24.7758 11.4804 24.7535 10.3052 24.3386 9.21856C23.9238 8.13196 23.1373 7.18875 22.0899 6.52169C21.0426 5.85463 19.787 5.4973 18.5 5.5Z" fill="#F1C3CD"/>
</svg>
