<svg width="24" height="19" viewBox="0 0 24 19" fill="none" xmlns="http://www.w3.org/2000/svg">
<path d="M11.9999 14.8437C9.15552 14.8437 6.85302 12.665 6.64115 9.90412L2.70741 6.89569C2.19029 7.53768 1.71441 8.2164 1.33041 8.95858C1.24463 9.1265 1.19994 9.31203 1.19994 9.50019C1.19994 9.68834 1.24463 9.87387 1.33041 10.0418C3.36403 13.9683 7.39002 16.6249 11.9999 16.6249C13.009 16.6249 13.9825 16.4765 14.9207 16.2368L12.9749 14.7468C12.6535 14.8083 12.3272 14.8407 11.9999 14.8437ZM23.7681 16.9997L19.6225 13.8291C20.8818 12.7789 21.9175 11.4914 22.6694 10.0414C22.7551 9.8735 22.7998 9.68797 22.7998 9.49981C22.7998 9.31166 22.7551 9.12613 22.6694 8.95821C20.6357 5.03171 16.6097 2.37507 11.9999 2.37507C10.0692 2.37739 8.16988 2.85837 6.4754 3.77408L1.70466 0.125155C1.64245 0.0772498 1.57131 0.0419454 1.49531 0.0212588C1.4193 0.000572325 1.33992 -0.00509081 1.26171 0.00459307C1.18349 0.0142769 1.10797 0.039118 1.03945 0.0776967C0.970942 0.116275 0.910784 0.167836 0.862416 0.229431L0.126294 1.16718C0.0286432 1.29148 -0.0151132 1.44909 0.00464778 1.60532C0.0244088 1.76155 0.106069 1.90362 0.231668 2.00027L22.2951 18.8748C22.3573 18.9228 22.4285 18.9581 22.5045 18.9787C22.5805 18.9994 22.6598 19.0051 22.7381 18.9954C22.8163 18.9857 22.8918 18.9609 22.9603 18.9223C23.0288 18.8837 23.089 18.8322 23.1374 18.7706L23.8738 17.8328C23.9715 17.7085 24.0152 17.5508 23.9953 17.3946C23.9755 17.2384 23.8938 17.0963 23.7681 16.9997ZM16.8786 11.7303L15.4049 10.6029C15.529 10.2479 15.5948 9.87557 15.5999 9.5C15.6072 8.95014 15.4841 8.40625 15.2405 7.91201C14.9968 7.41777 14.6395 6.98696 14.1971 6.65419C13.7547 6.32142 13.2396 6.09596 12.6931 5.99592C12.1467 5.89588 11.5842 5.92406 11.0508 6.07818C11.2769 6.3814 11.3992 6.74818 11.3999 7.12502C11.3943 7.25043 11.3749 7.37486 11.3421 7.49611L8.58177 5.38498C9.54063 4.59204 10.7503 4.15722 11.9999 4.1563C12.7091 4.15591 13.4115 4.29387 14.0668 4.56227C14.7222 4.83068 15.3176 5.22428 15.8191 5.72057C16.3206 6.21685 16.7184 6.80609 16.9896 7.4546C17.2609 8.1031 17.4003 8.79815 17.3999 9.5C17.3999 10.3027 17.2015 11.0508 16.8786 11.7306V11.7303Z" fill="#F1C3CD"/>
</svg>
