<svg width="28" height="22" viewBox="0 0 28 22" fill="none" xmlns="http://www.w3.org/2000/svg">
<path d="M27.3369 10.1127C24.7949 5.87036 19.7624 3 14 3C8.23765 3 3.20373 5.87236 0.6631 10.1131C0.555869 10.2946 0.5 10.495 0.5 10.6983C0.5 10.9016 0.555869 11.1021 0.6631 11.2835C3.20514 15.5259 8.23765 18.3963 14 18.3963C19.7624 18.3963 24.7963 15.5239 27.3369 11.2831C27.4441 11.1017 27.5 10.9012 27.5 10.6979C27.5 10.4946 27.4441 10.2942 27.3369 10.1127ZM14 16.4717C12.665 16.4717 11.3599 16.1331 10.2499 15.4987C9.13986 14.8643 8.27469 13.9626 7.7638 12.9076C7.25291 11.8526 7.11924 10.6917 7.37969 9.57175C7.64014 8.45179 8.28301 7.42303 9.22702 6.61558C10.171 5.80813 11.3738 5.25825 12.6831 5.03547C13.9925 4.81269 15.3497 4.92703 16.5831 5.36402C17.8165 5.80101 18.8707 6.54103 19.6124 7.49049C20.3541 8.43995 20.75 9.55622 20.75 10.6981C20.7504 11.4564 20.5761 12.2074 20.2371 12.908C19.898 13.6087 19.4008 14.2453 18.7739 14.7815C18.1471 15.3177 17.4028 15.743 16.5836 16.033C15.7645 16.323 14.8865 16.4721 14 16.4717ZM14 6.84906C13.5983 6.85386 13.1993 6.90498 12.8136 7.00102C13.1315 7.37056 13.2841 7.82532 13.2436 8.28282C13.2031 8.74032 12.9723 9.17027 12.593 9.49469C12.2138 9.81912 11.7111 10.0165 11.1762 10.0511C10.6413 10.0858 10.1097 9.95527 9.67765 9.68334C9.43163 10.4586 9.47604 11.2803 9.80462 12.0329C10.1332 12.7854 10.7294 13.4309 11.5093 13.8784C12.2893 14.3259 13.2136 14.553 14.1523 14.5276C15.091 14.5023 15.9968 14.2257 16.7421 13.737C17.4875 13.2483 18.0349 12.5719 18.3073 11.8031C18.5797 11.0343 18.5633 10.2119 18.2606 9.45142C17.9579 8.69099 17.384 8.0309 16.6197 7.56407C15.8554 7.09724 14.9392 6.84717 14 6.84906Z" fill="#F1C3CD"/>
</svg>
