<svg width="28" height="22" viewBox="0 0 28 22" fill="none" xmlns="http://www.w3.org/2000/svg">
<path d="M13.9999 17.0898C10.6814 17.0898 7.99519 14.5814 7.74801 11.4028L3.15865 7.93912C2.55534 8.67825 2.00015 9.45967 1.55215 10.3142C1.45207 10.5075 1.39992 10.7211 1.39992 10.9377C1.39992 11.1543 1.45207 11.3679 1.55215 11.5613C3.92471 16.0819 8.62169 19.1405 13.9999 19.1405C15.1772 19.1405 16.3129 18.9696 17.4075 18.6936L15.1374 16.9783C14.7624 17.049 14.3817 17.0863 13.9999 17.0898ZM27.7294 19.5721L22.8929 15.9217C24.3621 14.7126 25.5704 13.2302 26.4476 11.5608C26.5477 11.3675 26.5998 11.1539 26.5998 10.9373C26.5998 10.7207 26.5477 10.5071 26.4476 10.3137C24.075 5.79308 19.378 2.73446 13.9999 2.73446C11.7474 2.73712 9.53152 3.29089 7.55463 4.34516L1.98877 0.144093C1.91619 0.0889389 1.8332 0.0482924 1.74452 0.0244756C1.65585 0.000658927 1.56324 -0.00586113 1.47199 0.00528807C1.38074 0.0164373 1.29263 0.0450372 1.2127 0.0894535C1.13277 0.13387 1.06258 0.193232 1.00615 0.264147L0.147342 1.34379C0.0334171 1.48691 -0.0176321 1.66836 0.00542241 1.84823C0.0284769 2.0281 0.123747 2.19166 0.27028 2.30294L26.011 21.7309C26.0835 21.7861 26.1665 21.8267 26.2552 21.8505C26.3439 21.8743 26.4365 21.8809 26.5277 21.8697C26.619 21.8586 26.7071 21.83 26.787 21.7855C26.867 21.7411 26.9371 21.6818 26.9936 21.6109L27.8528 20.5312C27.9667 20.388 28.0177 20.2066 27.9945 20.0267C27.9714 19.8468 27.876 19.6833 27.7294 19.5721ZM19.6917 13.5052L17.9723 12.2073C18.1171 11.7986 18.194 11.3699 18.1998 10.9375C18.2084 10.3044 18.0648 9.67825 17.7805 9.10922C17.4963 8.5402 17.0794 8.0442 16.5632 7.66108C16.0471 7.27795 15.4462 7.01837 14.8087 6.9032C14.1712 6.78803 13.5149 6.82046 12.8926 6.9979C13.1564 7.347 13.2991 7.76928 13.2999 8.20315C13.2933 8.34753 13.2707 8.49079 13.2325 8.63039L10.0121 6.19982C11.1307 5.28689 12.542 4.78627 13.9999 4.78522C14.8273 4.78477 15.6467 4.9436 16.4113 5.25262C17.1759 5.56164 17.8705 6.0148 18.4556 6.58618C19.0407 7.15756 19.5048 7.83596 19.8212 8.58259C20.1377 9.32922 20.3003 10.1294 20.2998 10.9375C20.2998 11.8616 20.0684 12.7229 19.6917 13.5056V13.5052Z" fill="#F1C3CD"/>
</svg>
