<svg width="37" height="37" viewBox="0 0 37 37" fill="none" xmlns="http://www.w3.org/2000/svg">
<circle cx="18.5" cy="18.5" r="16" stroke="#F1C3CD"/>
<circle cx="18.5" cy="18.5" r="16" stroke="url(#paint0_linear)"/>
<path d="M23.7188 12H13.4062C13.0333 12 12.6756 12.1482 12.4119 12.4119C12.1482 12.6756 12 13.0333 12 13.4062V23.7188C12 24.0917 12.1482 24.4494 12.4119 24.7131C12.6756 24.9768 13.0333 25.125 13.4062 25.125H17.4272V20.6628H15.5815V18.5625H17.4272V16.9617C17.4272 15.1409 18.5112 14.1352 20.1715 14.1352C20.9666 14.1352 21.798 14.277 21.798 14.277V16.0641H20.8819C19.9793 16.0641 19.6978 16.6242 19.6978 17.1987V18.5625H21.7128L21.3905 20.6628H19.6978V25.125H23.7188C24.0917 25.125 24.4494 24.9768 24.7131 24.7131C24.9768 24.4494 25.125 24.0917 25.125 23.7188V13.4062C25.125 13.0333 24.9768 12.6756 24.7131 12.4119C24.4494 12.1482 24.0917 12 23.7188 12V12Z" fill="#374999"/>
<defs>
<linearGradient id="paint0_linear" x1="18.5" y1="2" x2="18.5" y2="35" gradientUnits="userSpaceOnUse">
<stop stop-color="#F1C3CD"/>
<stop offset="1" stop-color="#374999"/>
</linearGradient>
</defs>
</svg>
