<svg width="14" height="14" viewBox="0 0 14 14" fill="none" xmlns="http://www.w3.org/2000/svg">
<path d="M11.7188 0H1.40625C1.03329 0 0.675604 0.148158 0.411881 0.411881C0.148158 0.675604 0 1.03329 0 1.40625L0 11.7188C0 12.0917 0.148158 12.4494 0.411881 12.7131C0.675604 12.9768 1.03329 13.125 1.40625 13.125H5.42725V8.66279H3.58154V6.5625H5.42725V4.96172C5.42725 3.14092 6.51123 2.13516 8.17148 2.13516C8.9666 2.13516 9.79805 2.27695 9.79805 2.27695V4.06406H8.88193C7.9793 4.06406 7.69775 4.62422 7.69775 5.19873V6.5625H9.71279L9.39053 8.66279H7.69775V13.125H11.7188C12.0917 13.125 12.4494 12.9768 12.7131 12.7131C12.9768 12.4494 13.125 12.0917 13.125 11.7188V1.40625C13.125 1.03329 12.9768 0.675604 12.7131 0.411881C12.4494 0.148158 12.0917 0 11.7188 0Z" fill="#374999"/>
</svg>
