<svg width="30" height="24" viewBox="0 0 30 24" fill="none" xmlns="http://www.w3.org/2000/svg">
<path d="M14.6023 6.05214L5.0004 13.9604V22.4957C5.0004 22.7167 5.08819 22.9286 5.24445 23.0849C5.40072 23.2412 5.61267 23.329 5.83366 23.329L11.6697 23.3138C11.8899 23.3127 12.1008 23.2245 12.2562 23.0683C12.4116 22.9122 12.4988 22.7009 12.4988 22.4806V17.4961C12.4988 17.2751 12.5866 17.0631 12.7428 16.9068C12.8991 16.7506 13.111 16.6628 13.332 16.6628H16.6651C16.8861 16.6628 17.0981 16.7506 17.2543 16.9068C17.4106 17.0631 17.4984 17.2751 17.4984 17.4961V22.4769C17.498 22.5866 17.5193 22.6952 17.5611 22.7966C17.6028 22.898 17.6641 22.9902 17.7415 23.0678C17.8189 23.1455 17.9109 23.2071 18.0122 23.2491C18.1134 23.2912 18.222 23.3128 18.3317 23.3128L24.1656 23.329C24.3866 23.329 24.5985 23.2412 24.7548 23.0849C24.9111 22.9286 24.9989 22.7167 24.9989 22.4957V13.9547L15.3991 6.05214C15.2862 5.96117 15.1456 5.91157 15.0007 5.91157C14.8557 5.91157 14.7151 5.96117 14.6023 6.05214ZM29.7693 11.4273L25.4155 7.83846V0.624952C25.4155 0.459205 25.3496 0.300246 25.2324 0.183044C25.1152 0.0658431 24.9563 0 24.7905 0H21.8741C21.7083 0 21.5494 0.0658431 21.4322 0.183044C21.315 0.300246 21.2491 0.459205 21.2491 0.624952V4.40643L16.5865 0.570269C16.139 0.202057 15.5775 0.000736061 14.9981 0.000736061C14.4186 0.000736061 13.8571 0.202057 13.4096 0.570269L0.226805 11.4273C0.163522 11.4796 0.111165 11.5438 0.0727266 11.6164C0.0342879 11.6889 0.0105204 11.7683 0.00278216 11.8501C-0.0049561 11.9318 0.00348653 12.0143 0.0276277 12.0927C0.0517688 12.1712 0.0911353 12.2441 0.143478 12.3074L1.4715 13.9219C1.5237 13.9853 1.58791 14.0379 1.66044 14.0765C1.73298 14.1151 1.81242 14.1391 1.89422 14.147C1.97603 14.1548 2.05858 14.1465 2.13716 14.1225C2.21574 14.0984 2.2888 14.0591 2.35216 14.0067L14.6023 3.91689C14.7151 3.82592 14.8557 3.77631 15.0007 3.77631C15.1456 3.77631 15.2862 3.82592 15.3991 3.91689L27.6497 14.0067C27.7129 14.0591 27.7859 14.0985 27.8644 14.1226C27.9428 14.1467 28.0253 14.1552 28.107 14.1474C28.1888 14.1397 28.2682 14.1159 28.3407 14.0775C28.4133 14.0391 28.4775 13.9867 28.5298 13.9234L29.8579 12.309C29.9101 12.2453 29.9493 12.172 29.9732 12.0932C29.9971 12.0144 30.0051 11.9316 29.9969 11.8497C29.9886 11.7678 29.9643 11.6883 29.9253 11.6158C29.8862 11.5433 29.8332 11.4792 29.7693 11.4273Z" fill="#BCBCBC"/>
</svg>
