<svg width="37" height="37" viewBox="0 0 37 37" fill="none" xmlns="http://www.w3.org/2000/svg">
<circle cx="18.5" cy="18.5" r="16" stroke="url(#paint0_linear)"/>
<path d="M24.9286 11H12.0681C11.4788 11 11 11.4855 11 12.0815V24.9185C11 25.5145 11.4788 26 12.0681 26H24.9286C25.5179 26 26 25.5145 26 24.9185V12.0815C26 11.4855 25.5179 11 24.9286 11ZM15.5335 23.8571H13.3103V16.6987H15.5368V23.8571H15.5335ZM14.4219 15.721C13.7087 15.721 13.1328 15.1417 13.1328 14.4319C13.1328 13.7221 13.7087 13.1429 14.4219 13.1429C15.1317 13.1429 15.7109 13.7221 15.7109 14.4319C15.7109 15.1451 15.135 15.721 14.4219 15.721V15.721ZM23.8672 23.8571H21.644V20.375C21.644 19.5446 21.6272 18.4766 20.4888 18.4766C19.3304 18.4766 19.1529 19.3806 19.1529 20.3147V23.8571H16.9297V16.6987H19.0625V17.6763H19.0926C19.3906 17.1138 20.1172 16.5212 21.1987 16.5212C23.4487 16.5212 23.8672 18.0045 23.8672 19.933V23.8571V23.8571Z" fill="#374999"/>
<defs>
<linearGradient id="paint0_linear" x1="18.5" y1="2" x2="18.5" y2="35" gradientUnits="userSpaceOnUse">
<stop stop-color="#F1C3CD"/>
<stop offset="1" stop-color="#374999"/>
</linearGradient>
</defs>
</svg>
