<svg width="30" height="30" viewBox="0 0 30 30" fill="none" xmlns="http://www.w3.org/2000/svg">
<g clip-path="url(#clip0)">
<path d="M12.0326 30C13.9913 30 15.5791 28.4122 15.5791 26.4535C15.5791 24.4949 13.9913 22.9071 12.0326 22.9071C10.074 22.9071 8.48621 24.4949 8.48621 26.4535C8.48621 28.4122 10.074 30 12.0326 30Z" fill="#BCBCBC"/>
<path d="M22.3825 22.9072C20.4239 22.9072 18.8361 24.495 18.8361 26.4536C18.8361 28.4122 20.4239 30 22.3825 30C24.3411 30 25.9289 28.4122 25.9289 26.4536C25.9289 24.495 24.3411 22.9072 22.3825 22.9072Z" fill="#BCBCBC"/>
<path d="M28.4259 19.2883H9.93374L9.57186 17.1894H24.7709C25.218 17.1907 25.6202 16.9178 25.7841 16.5018L29.4029 7.38242C29.6228 6.82461 29.3488 6.19415 28.791 5.97433C28.6632 5.92394 28.527 5.89828 28.3897 5.89871H7.69008L6.82156 0.904749C6.73236 0.3767 6.27139 -0.00744539 5.73592 4.66757e-05H1.57429C0.974713 4.66757e-05 0.488647 0.486112 0.488647 1.08569C0.488647 1.68527 0.974713 2.17133 1.57429 2.17133H4.83122L7.94339 20.5549C8.03259 21.0829 8.49357 21.4671 9.02904 21.4596H28.4259C29.0254 21.4596 29.5115 20.9735 29.5115 20.3739C29.5115 19.7744 29.0254 19.2883 28.4259 19.2883Z" fill="#BCBCBC"/>
</g>
<defs>
<clipPath id="clip0">
<rect width="30" height="30" fill="white"/>
</clipPath>
</defs>
</svg>
