<svg width="15" height="15" viewBox="0 0 15 15" fill="none" xmlns="http://www.w3.org/2000/svg">
<path d="M10.7783 9.66094C10.643 9.81621 10.4918 9.95684 10.3125 10.0608V10.7329C12.2613 11.0065 13.5938 11.5547 13.5938 12.1875C13.5938 13.0937 10.8656 13.8281 7.5 13.8281C4.13438 13.8281 1.40625 13.0937 1.40625 12.1875C1.40625 11.5547 2.73867 11.0068 4.6875 10.7329V10.0608C4.5082 9.95684 4.35703 9.81621 4.22168 9.66094C1.72471 10.1174 0 11.0757 0 12.1875C0 13.7408 3.35801 15 7.5 15C11.642 15 15 13.7408 15 12.1875C15 11.0757 13.2753 10.1174 10.7783 9.66094ZM7.5 3.75C8.53564 3.75 9.375 2.91064 9.375 1.875C9.375 0.839356 8.53564 0 7.5 0C6.46436 0 5.625 0.839356 5.625 1.875C5.625 2.91064 6.46436 3.75 7.5 3.75ZM5.625 9.375V12.1875C5.625 12.7052 6.04482 13.125 6.5625 13.125H8.4375C8.95518 13.125 9.375 12.7052 9.375 12.1875V9.375C9.89268 9.375 10.3125 8.95518 10.3125 8.4375V5.625C10.3125 4.84834 9.68291 4.21875 8.90625 4.21875H8.56055C8.23623 4.36611 7.8791 4.45312 7.5 4.45312C7.1209 4.45312 6.76377 4.36611 6.43945 4.21875H6.09375C5.31709 4.21875 4.6875 4.84834 4.6875 5.625V8.4375C4.6875 8.95518 5.10732 9.375 5.625 9.375Z" fill="white"/>
</svg>
