<svg width="37" height="37" viewBox="0 0 37 37" fill="none" xmlns="http://www.w3.org/2000/svg">
<path d="M28.5612 13.347C28.3197 12.4232 27.6081 11.6956 26.7046 11.4487C25.0669 11 18.5 11 18.5 11C18.5 11 11.9331 11 10.2954 11.4487C9.39193 11.6956 8.68033 12.4232 8.43882 13.347C8 15.0215 8 18.5152 8 18.5152C8 18.5152 8 22.0088 8.43882 23.6833C8.68033 24.6071 9.39193 25.3044 10.2954 25.5513C11.9331 26 18.5 26 18.5 26C18.5 26 25.0668 26 26.7046 25.5513C27.6081 25.3044 28.3197 24.6071 28.5612 23.6833C29 22.0088 29 18.5152 29 18.5152C29 18.5152 29 15.0215 28.5612 13.347V13.347ZM16.3523 21.6871V15.3432L21.8409 18.5152L16.3523 21.6871V21.6871Z" fill="#374999"/>
<circle cx="18.5" cy="18.5" r="16" stroke="url(#paint0_linear)"/>
<defs>
<linearGradient id="paint0_linear" x1="18.5" y1="2" x2="18.5" y2="35" gradientUnits="userSpaceOnUse">
<stop stop-color="#F1C3CD"/>
<stop offset="1" stop-color="#374999"/>
</linearGradient>
</defs>
</svg>
