<svg width="20" height="19" viewBox="0 0 20 19" fill="none" xmlns="http://www.w3.org/2000/svg">
<path d="M10.9229 17.5076L9.98136 18.4615C9.5827 18.8654 8.93806 18.8654 8.54364 18.4615L0.298996 10.1127C-0.0996652 9.70879 -0.0996652 9.05567 0.298996 8.65606L8.54364 0.30293C8.9423 -0.100977 9.58694 -0.100977 9.98136 0.30293L10.9229 1.25684C11.3258 1.66504 11.3173 2.33105 10.9059 2.73066L5.79542 7.66348H17.9843C18.5483 7.66348 19.0021 8.12324 19.0021 8.69473V10.0697C19.0021 10.6412 18.5483 11.101 17.9843 11.101H5.79542L10.9059 16.0338C11.3215 16.4334 11.33 17.0994 10.9229 17.5076Z" fill="#F1C3CD"/>
</svg>
