<svg width="10" height="10" viewBox="0 0 10 10" fill="none" xmlns="http://www.w3.org/2000/svg">
<path d="M5 0C2.23857 0 0 2.23857 0 5C0 7.76143 2.23857 10 5 10C7.76143 10 10 7.76143 10 5C10 2.23857 7.76143 0 5 0ZM5 9.03226C2.77153 9.03226 0.967742 7.22881 0.967742 5C0.967742 2.77155 2.77119 0.967742 5 0.967742C7.22847 0.967742 9.03226 2.77119 9.03226 5C9.03226 7.22847 7.22881 9.03226 5 9.03226ZM7.16433 6.99468C6.9705 7.19048 6.24639 7.82927 5.06625 7.82927C3.40436 7.82927 2.23391 6.59087 2.23391 4.9751C2.23391 3.37929 3.44913 2.1646 5.05169 2.1646C6.17127 2.1646 6.84077 2.70129 7.01929 2.86579C7.06124 2.90437 7.08818 2.95656 7.09532 3.0131C7.10247 3.06965 7.08936 3.12689 7.05833 3.1747L6.6923 3.74149C6.61486 3.86145 6.45105 3.88831 6.3395 3.80038C6.16621 3.66377 5.69808 3.34599 5.09538 3.34599C4.12153 3.34599 3.5245 4.05829 3.5245 4.96054C3.5245 5.79903 4.06659 6.64788 5.10266 6.64788C5.76107 6.64788 6.24869 6.26403 6.42778 6.09899C6.53403 6.00107 6.70189 6.01756 6.78706 6.13403L7.18756 6.68181C7.2217 6.72814 7.23813 6.78516 7.23387 6.84255C7.22961 6.89993 7.20494 6.9539 7.16433 6.99468Z" fill="#F1C3CD"/>
</svg>
