<svg width="73" height="54" viewBox="0 0 73 54" fill="none" xmlns="http://www.w3.org/2000/svg">
<path d="M3.43689 9.79888C5.24834 10.4723 6.64582 11.068 6.6598 11.074C6.6781 11.0819 6.69958 11.09 6.71832 11.0965C6.89 11.1562 10.9215 12.6068 10.865 16.9245C10.7799 23.429 12.4254 27.6152 15.8912 29.7131C16.0505 29.9595 16.2239 30.2047 16.4153 30.447C17.4829 31.8049 18.1819 33.4124 18.4456 35.1157L19.6313 42.7071C19.8238 43.9335 19.7869 45.1847 19.5225 46.3979L18.898 49.271C18.8718 49.394 18.809 49.5064 18.7178 49.5934C18.6265 49.6805 18.511 49.7382 18.3863 49.7592L18.3295 49.768C17.8365 49.8482 17.3918 50.1098 17.084 50.5009C16.7761 50.892 16.6276 51.3839 16.6679 51.8789C16.7083 52.3738 16.9345 52.8356 17.3017 53.1723C17.6689 53.5091 18.1501 53.6962 18.6497 53.6964H22.5643C23.0538 53.6974 23.5314 53.547 23.9309 53.266C24.3304 52.985 24.632 52.5873 24.7938 52.1281L25.8841 52.2178C26.1845 52.2628 26.4877 52.2871 26.7915 52.2905C27.4267 52.2905 28.0426 52.1522 28.4158 51.6647C28.9572 50.9573 28.5872 50.1156 28.3423 49.5586C28.3181 49.5039 28.2946 49.4501 28.2726 49.3981C27.5155 47.6118 27.7525 45.7335 28.0804 43.134C28.4036 40.5732 28.7995 37.4306 28.4683 33.0677C29.0077 33.1114 29.5952 33.1393 30.2269 33.1393C30.3936 33.1393 30.5634 33.1374 30.7363 33.1336C33.3084 33.0748 36.9448 32.5274 40.9373 30.5139C42.7805 32.8049 44.816 34.9362 47.0219 36.885C49.2087 38.8405 51.7651 42.2442 52.2101 45.0963L52.2572 45.3947C52.3762 46.1439 52.5112 46.993 52.4868 47.6584C52.4786 47.7953 52.4287 47.9265 52.3436 48.0345C52.2584 48.1425 52.1422 48.2222 52.0104 48.2628C51.0844 48.5545 50.1996 48.9621 49.3772 49.4759C49.023 49.7112 48.7541 50.0533 48.6101 50.4519C48.4662 50.8505 48.4548 51.2844 48.5777 51.6899C48.7005 52.0954 48.9511 52.451 49.2925 52.7043C49.634 52.9576 50.0482 53.0952 50.4743 53.0969C50.5083 53.0969 50.5426 53.0962 50.577 53.0945L52.8113 52.9942C52.9825 53.3002 53.2332 53.5549 53.5372 53.7318C53.8411 53.9087 54.1873 54.0013 54.5396 54L58.894 53.7865C59.2461 53.7693 59.5901 53.6751 59.9014 53.5104C60.2126 53.3458 60.4834 53.1148 60.6945 52.8341C60.9055 52.5533 61.0515 52.2297 61.1221 51.8864C61.1927 51.543 61.1861 51.1884 61.1028 50.8479L60.619 48.8745C60.5546 48.6121 60.5286 48.3419 60.5418 48.0721L60.9512 39.7121C60.9847 39.0097 60.8541 38.3091 60.5695 37.6652C57.952 31.7636 58.2135 30.5762 58.6465 28.6088C58.9534 27.2148 59.3354 25.4799 59.0043 21.9074C58.917 20.7962 58.6557 19.7053 58.2296 18.6742C58.1433 18.4843 58.1355 18.2682 58.2079 18.0726C58.2803 17.877 58.4271 17.7174 58.6167 17.6284C72.0716 11.4591 72.3543 3.6143 72.3599 3.28334C72.3629 3.09163 72.3014 2.90442 72.1851 2.75145C72.0688 2.59849 71.9044 2.48857 71.718 2.43916C71.5316 2.38976 71.334 2.4037 71.1565 2.47878C70.979 2.55387 70.8318 2.68577 70.7384 2.85353C69.5637 4.9642 65.618 10.2671 54.3823 13.9153C53.6198 14.158 52.8044 14.1845 52.0276 13.992C48.5314 13.1467 43.9681 13.247 38.1908 13.3748C36.9664 13.4017 35.7004 13.4295 34.3896 13.449C28.8284 13.5318 24.928 12.6695 22.459 10.8128C20.3581 9.23267 19.5382 7.12601 18.7454 5.0887C18.6188 4.76362 18.4938 4.44269 18.3658 4.12878C17.2869 1.48372 14.442 -0.0239256 10.5563 0.000287229C9.67852 0.00561135 8.82313 0.276027 8.10354 0.77567L7.29129 1.33629C6.89834 1.60708 6.44243 1.77384 5.96661 1.82083L1.26998 2.28174C1.06643 2.30157 0.869669 2.36526 0.693408 2.46839C0.517148 2.57151 0.365621 2.71158 0.249379 2.87885C0.133137 3.04611 0.0549735 3.23655 0.020332 3.43691C-0.0143094 3.63726 -0.00459638 3.84271 0.0487947 4.03895C0.669477 6.32255 1.76108 9.17536 3.43689 9.79888ZM24.8486 50.4057C24.8197 50.1325 24.7909 49.8547 24.7621 49.5811C24.6708 48.7215 24.5846 47.9087 24.5617 47.4757C24.5084 46.4606 24.9777 41.9115 25.8495 34.9947C25.9445 34.2344 25.979 33.4679 25.9526 32.7023C26.1787 32.7515 26.4344 32.8016 26.7165 32.8498C27.0829 37.226 26.6868 40.3715 26.3651 42.9207C26.0171 45.6777 25.7424 47.8554 26.6793 50.066C26.7043 50.1249 26.7309 50.1857 26.758 50.2476C26.7954 50.3324 26.8496 50.4555 26.8931 50.5688L24.8486 50.4057ZM52.696 51.2788L50.4958 51.377C50.4371 51.3833 50.3782 51.3683 50.3299 51.3346C50.2816 51.301 50.2472 51.251 50.2333 51.194C50.2117 51.1434 50.2095 51.0867 50.2272 51.0347C50.2449 50.9826 50.2812 50.9388 50.3293 50.9116C51.0237 50.4815 51.77 50.1403 52.5505 49.8961C53.0179 49.7451 53.4278 49.4558 53.7254 49.0671C54.023 48.6783 54.1942 48.2086 54.2161 47.7206C54.2464 46.8884 54.0976 45.952 53.9663 45.1259L53.9199 44.8322C53.4073 41.5466 50.6673 37.8311 48.1792 35.6056C46.1192 33.7845 44.2114 31.8001 42.4746 29.672C42.8522 29.4492 43.2318 29.2144 43.6133 28.9635C45.2913 31.4784 47.781 34.462 51.4779 37.7678C53.6718 39.7069 55.1275 42.3373 55.6005 45.2172C55.7865 46.4093 55.6903 48.3691 55.4321 49.2314C54.6 49.5389 53.8336 49.9996 53.1731 50.5891C52.9662 50.7825 52.8035 51.0177 52.696 51.2788ZM6.13656 3.53249C6.90571 3.45656 7.64268 3.18693 8.27781 2.74909L9.09006 2.18861C9.52266 1.88719 10.0372 1.7236 10.5655 1.71954C14.8643 1.69361 16.2928 3.62318 16.7622 4.77393C16.8869 5.07939 17.0084 5.39172 17.1315 5.70806C17.372 6.32599 17.6216 6.96555 17.9111 7.60712C17.8942 9.42165 16.6748 11.0493 15.6345 12.1068C15.5451 12.1988 15.4348 12.2682 15.3129 12.3092C15.1909 12.3501 15.0609 12.3614 14.9337 12.3422C14.8064 12.3229 14.6857 12.2736 14.5816 12.1985C14.4774 12.1233 14.3929 12.0244 14.3352 11.9101C13.7789 10.8213 13.7398 9.72567 14.2188 8.65242C15.0782 6.72715 14.8721 5.27037 14.5479 4.38739C14.4693 4.17321 14.3083 3.99886 14.1003 3.90268C13.8923 3.80651 13.6544 3.79639 13.4389 3.87455C13.2235 3.95271 13.0481 4.11275 12.9513 4.31947C12.8545 4.52618 12.8443 4.76263 12.923 4.97681C13.2358 5.82855 13.1392 6.83059 12.6379 7.95527C11.9474 9.50259 12.001 11.1387 12.7928 12.6887C12.9733 13.0475 13.2382 13.3579 13.565 13.5933C13.8919 13.8288 14.271 13.9825 14.6703 14.0413C14.8007 14.0613 14.9324 14.0713 15.0644 14.0714C15.4017 14.0714 15.7355 14.0039 16.0459 13.8729C16.3563 13.7418 16.637 13.55 16.8712 13.3087C17.7106 12.4556 18.6464 11.281 19.1882 9.89157C21.2078 12.7619 24.9525 15.1734 33.6821 15.1733C33.9221 15.1733 34.1673 15.1713 34.4149 15.1677C35.7318 15.148 37.0012 15.1201 38.2286 15.0932C43.6554 14.974 48.3424 14.8707 51.6185 15.6621C52.7079 15.9305 53.8511 15.8913 54.9194 15.5491C57.8406 14.6006 63.8629 12.3111 68.3383 8.38651C65.586 12.0189 61.2059 14.5472 57.8926 16.067C57.292 16.3418 56.8241 16.8403 56.5899 17.4549C56.3557 18.0695 56.3738 18.7509 56.6405 19.3523C56.9948 20.218 57.2114 21.1333 57.2823 22.0653C57.5888 25.3726 57.2391 26.9633 56.9573 28.2414C56.4216 30.6745 56.2687 32.2295 58.9873 38.3591C59.1637 38.7585 59.2448 39.1931 59.2239 39.6289L58.8147 47.9886C58.7932 48.4234 58.835 48.859 58.9388 49.2819L59.4227 51.2552C59.4457 51.3498 59.4474 51.4482 59.4276 51.5435C59.4079 51.6388 59.3672 51.7285 59.3085 51.8063C59.2498 51.8842 59.1745 51.9482 59.088 51.9937C59.0015 52.0393 58.906 52.0653 58.8082 52.0698L54.5569 52.2807C54.5026 52.2856 54.4483 52.2725 54.4023 52.2435C54.3563 52.2145 54.3212 52.1712 54.3024 52.1204C54.279 52.0744 54.2718 52.0219 54.282 51.9714C54.2923 51.9209 54.3194 51.8752 54.3589 51.8419C55.1695 51.0836 56.3125 50.7467 56.3217 50.7441C56.4325 50.7127 56.5359 50.6596 56.6257 50.588C56.7156 50.5163 56.7901 50.4275 56.845 50.3268C57.4635 49.1918 57.5336 46.3868 57.31 44.9541C56.7757 41.683 55.125 38.6942 52.6351 36.4901C49.6499 33.8208 45.612 29.668 43.3279 25.0416C41.9809 22.3133 41.8803 20.6829 41.878 20.6402C41.8696 20.4124 41.7704 20.1972 41.6024 20.042C41.4344 19.8868 41.2112 19.8043 40.982 19.8127C40.7528 19.821 40.5363 19.9195 40.3801 20.0866C40.224 20.2536 40.141 20.4754 40.1494 20.7032C40.1553 20.877 40.2856 23.4152 42.6964 27.5057C38.0371 30.5802 33.673 31.3345 30.7781 31.4119C29.0953 31.4683 27.4127 31.2929 25.7783 30.8907C25.6308 29.9592 25.393 29.0441 25.0681 28.1582L24.093 25.5077C24.0549 25.4005 23.9958 25.3018 23.9191 25.2174C23.8424 25.1331 23.7496 25.0646 23.6461 25.0162C23.5426 24.9677 23.4305 24.9401 23.3162 24.935C23.2019 24.9299 23.0877 24.9474 22.9803 24.9864C22.8729 25.0255 22.7743 25.0854 22.6903 25.1626C22.6063 25.2398 22.5385 25.3328 22.4909 25.4362C22.4433 25.5396 22.4168 25.6513 22.413 25.765C22.4092 25.8786 22.4281 25.9919 22.4686 26.0982L23.4436 28.7488C24.151 30.6766 24.3873 32.744 24.133 34.7805C23.4988 39.8146 22.7583 46.1191 22.8344 47.565C22.8595 48.0433 22.9482 48.8776 23.0419 49.7607C23.0964 50.2748 23.1527 50.8055 23.1986 51.286C23.2068 51.3737 23.1966 51.4621 23.1684 51.5456C23.1403 51.6291 23.0949 51.7058 23.0352 51.7708C22.9755 51.8358 22.9027 51.8877 22.8217 51.9232C22.7406 51.9586 22.6529 51.9768 22.5643 51.9766H18.6497C18.5847 51.9764 18.5222 51.952 18.4745 51.9083C18.4267 51.8645 18.3972 51.8046 18.3918 51.7403C18.3864 51.6759 18.4054 51.6119 18.4451 51.5609C18.4849 51.5098 18.5424 51.4754 18.6064 51.4645L18.6536 51.4571C19.1228 51.381 19.5583 51.1664 19.9033 50.8412C20.2483 50.516 20.4869 50.0951 20.5881 49.6334L21.2125 46.7602C21.5219 45.3412 21.5651 43.8775 21.3401 42.4429L20.1548 34.8515C19.8455 32.8569 19.0263 30.9745 17.7756 29.3846C15.1303 26.0368 16.418 21.869 16.4307 21.8295C16.4656 21.7221 16.4789 21.6089 16.4698 21.4963C16.4608 21.3838 16.4294 21.2742 16.3777 21.1736C16.326 21.0731 16.2549 20.9837 16.1684 20.9106C16.0819 20.8374 15.9818 20.7819 15.8737 20.7471C15.7656 20.7124 15.6517 20.6992 15.5385 20.7083C15.4253 20.7173 15.315 20.7484 15.2138 20.7998C15.1127 20.8512 15.0228 20.9219 14.9492 21.0079C14.8755 21.0939 14.8197 21.1934 14.7847 21.3008C14.3529 22.8215 14.2526 24.4163 14.4904 25.9786C13.1669 23.9234 12.5424 20.9355 12.5946 16.9464C12.6523 12.5071 9.18419 10.131 7.31291 9.48125C7.09569 9.38912 5.7713 8.83108 4.0433 8.18823C3.47365 7.9769 2.57996 6.5876 1.82075 3.95528L6.13656 3.53249Z" fill="#374999"/>
</svg>
