<svg width="37" height="37" viewBox="0 0 37 37" fill="none" xmlns="http://www.w3.org/2000/svg">
<path d="M18.5017 14.6542C16.3734 14.6542 14.6567 16.3712 14.6567 18.5C14.6567 20.6288 16.3734 22.3458 18.5017 22.3458C20.63 22.3458 22.3466 20.6288 22.3466 18.5C22.3466 16.3712 20.63 14.6542 18.5017 14.6542ZM18.5017 21.0003C17.1263 21.0003 16.002 19.879 16.002 18.5C16.002 17.121 17.123 15.9997 18.5017 15.9997C19.8804 15.9997 21.0014 17.121 21.0014 18.5C21.0014 19.879 19.877 21.0003 18.5017 21.0003V21.0003ZM23.4007 14.4969C23.4007 14.9956 22.9992 15.3939 22.5039 15.3939C22.0053 15.3939 21.6071 14.9922 21.6071 14.4969C21.6071 14.0015 22.0086 13.5999 22.5039 13.5999C22.9992 13.5999 23.4007 14.0015 23.4007 14.4969ZM25.9473 15.4073C25.8904 14.2057 25.616 13.1413 24.7359 12.2644C23.8592 11.3874 22.795 11.113 21.5937 11.0527C20.3556 10.9824 16.6445 10.9824 15.4063 11.0527C14.2083 11.1096 13.1442 11.3841 12.2641 12.261C11.384 13.138 11.1129 14.2023 11.0527 15.4039C10.9824 16.6424 10.9824 20.3543 11.0527 21.5927C11.1096 22.7943 11.384 23.8587 12.2641 24.7356C13.1442 25.6126 14.205 25.887 15.4063 25.9473C16.6445 26.0176 20.3556 26.0176 21.5937 25.9473C22.795 25.8904 23.8592 25.6159 24.7359 24.7356C25.6127 23.8587 25.8871 22.7943 25.9473 21.5927C26.0176 20.3543 26.0176 16.6457 25.9473 15.4073V15.4073ZM24.3477 22.9215C24.0867 23.5775 23.5814 24.083 22.9222 24.3474C21.935 24.739 19.5926 24.6486 18.5017 24.6486C17.4108 24.6486 15.065 24.7356 14.0811 24.3474C13.4253 24.0863 12.92 23.5809 12.6556 22.9215C12.2641 21.9341 12.3544 19.5912 12.3544 18.5C12.3544 17.4088 12.2674 15.0625 12.6556 14.0785C12.9166 13.4225 13.4219 12.917 14.0811 12.6526C15.0683 12.261 17.4108 12.3514 18.5017 12.3514C19.5926 12.3514 21.9384 12.2644 22.9222 12.6526C23.5781 12.9137 24.0834 13.4191 24.3477 14.0785C24.7393 15.0659 24.6489 17.4088 24.6489 18.5C24.6489 19.5912 24.7393 21.9375 24.3477 22.9215Z" fill="#374999"/>
<circle cx="18.5" cy="18.5" r="16" stroke="#F1C3CD"/>
<circle cx="18.5" cy="18.5" r="16" stroke="url(#paint0_linear)"/>
<defs>
<linearGradient id="paint0_linear" x1="18.5" y1="2" x2="18.5" y2="35" gradientUnits="userSpaceOnUse">
<stop stop-color="#F1C3CD"/>
<stop offset="1" stop-color="#374999"/>
</linearGradient>
</defs>
</svg>
