<svg width="30" height="30" viewBox="0 0 30 30" fill="none" xmlns="http://www.w3.org/2000/svg">
<path d="M19.6875 10.6098C21.729 10.6098 23.384 8.53306 23.384 5.97128C23.384 3.4095 21.729 1.33276 19.6875 1.33276C17.6459 1.33276 15.991 3.4095 15.991 5.97128C15.991 8.53306 17.6459 10.6098 19.6875 10.6098Z" fill="#374999"/>
<path d="M10.3125 10.6098C12.354 10.6098 14.009 8.53306 14.009 5.97128C14.009 3.4095 12.354 1.33276 10.3125 1.33276C8.27095 1.33276 6.61597 3.4095 6.61597 5.97128C6.61597 8.53306 8.27095 10.6098 10.3125 10.6098Z" fill="#374999"/>
<path d="M3.22266 15.2877C5.00248 15.2877 6.44531 13.8449 6.44531 12.0651C6.44531 10.2852 5.00248 8.84241 3.22266 8.84241C1.44283 8.84241 0 10.2852 0 12.0651C0 13.8449 1.44283 15.2877 3.22266 15.2877Z" fill="#374999"/>
<path d="M26.7773 15.2877C28.5572 15.2877 30 13.8449 30 12.0651C30 10.2852 28.5572 8.84241 26.7773 8.84241C24.9975 8.84241 23.5547 10.2852 23.5547 12.0651C23.5547 13.8449 24.9975 15.2877 26.7773 15.2877Z" fill="#374999"/>
<path d="M14.9999 13.2422C11.6661 13.2422 9.16593 14.2916 7.35661 16.4503C5.75395 18.3625 4.88354 20.8796 4.0419 23.2737C3.00749 26.2076 5.5521 29.1707 8.62464 28.5805C11.1455 28.0957 14.6076 27.2789 19.556 28.2306C21.463 28.5974 21.6402 28.6557 22.1587 28.6557C24.8672 28.6556 26.9022 25.9521 25.9578 23.2736C24.2742 18.4839 22.4794 13.2422 14.9999 13.2422ZM17.3437 21.8502H15.8788V23.315C15.8788 23.8004 15.4853 24.1939 14.9999 24.1939C14.5145 24.1939 14.121 23.8004 14.121 23.315V21.8502H12.6562C12.1708 21.8502 11.7773 21.4567 11.7773 20.9713C11.7773 20.4859 12.1708 20.0924 12.6562 20.0924H14.121V18.6275C14.121 18.1422 14.5145 17.7486 14.9999 17.7486C15.4853 17.7486 15.8788 18.1422 15.8788 18.6275V20.0924H17.3437C17.8291 20.0924 18.2226 20.4859 18.2226 20.9713C18.2226 21.4567 17.8291 21.8502 17.3437 21.8502Z" fill="#374999"/>
</svg>
